<mxfile host="app.diagrams.net" modified="2021-01-11T03:42:09.680Z" agent="5.0 (Windows NT 10.0; Win64; x64) AppleWebKit/537.36 (KHTML, like Gecko) Chrome/86.0.4240.183 Safari/537.36" etag="qIfaXLeUjk0nQjrbX-2m" version="14.1.9" type="github">
  <diagram name="Page-1" id="2a216829-ef6e-dabb-86c1-c78162f3ba2b">
    <mxGraphModel dx="1422" dy="762" grid="1" gridSize="10" guides="1" tooltips="1" connect="1" arrows="1" fold="1" page="1" pageScale="1" pageWidth="850" pageHeight="1100" background="#ffffff" math="0" shadow="0">
      <root>
        <mxCell id="0" />
        <mxCell id="1" parent="0" />
        <mxCell id="qoozORwcTyye_NYdi-yt-23" value="" style="rounded=0;whiteSpace=wrap;html=1;fillColor=#FFFFFF;gradientColor=#FFFFFF;" vertex="1" parent="1">
          <mxGeometry x="425" y="650" width="200" height="90" as="geometry" />
        </mxCell>
        <mxCell id="qoozORwcTyye_NYdi-yt-1" value="" style="rounded=0;whiteSpace=wrap;html=1;" vertex="1" parent="1">
          <mxGeometry x="130" y="500" width="120" height="60" as="geometry" />
        </mxCell>
        <mxCell id="qoozORwcTyye_NYdi-yt-2" value="submit(Callable)&lt;br&gt;submit(Runable)" style="text;html=1;strokeColor=none;fillColor=none;align=center;verticalAlign=middle;whiteSpace=wrap;rounded=0;" vertex="1" parent="1">
          <mxGeometry x="170" y="520" width="40" height="20" as="geometry" />
        </mxCell>
        <mxCell id="qoozORwcTyye_NYdi-yt-7" style="edgeStyle=orthogonalEdgeStyle;rounded=0;orthogonalLoop=1;jettySize=auto;html=1;entryX=0;entryY=0.5;entryDx=0;entryDy=0;" edge="1" parent="1" source="qoozORwcTyye_NYdi-yt-3" target="qoozORwcTyye_NYdi-yt-6">
          <mxGeometry relative="1" as="geometry" />
        </mxCell>
        <mxCell id="qoozORwcTyye_NYdi-yt-3" value="" style="rounded=0;whiteSpace=wrap;html=1;" vertex="1" parent="1">
          <mxGeometry x="130" y="380" width="120" height="60" as="geometry" />
        </mxCell>
        <mxCell id="qoozORwcTyye_NYdi-yt-4" value="execute(Runbale)" style="text;html=1;strokeColor=none;fillColor=none;align=center;verticalAlign=middle;whiteSpace=wrap;rounded=0;" vertex="1" parent="1">
          <mxGeometry x="170" y="400" width="40" height="20" as="geometry" />
        </mxCell>
        <mxCell id="qoozORwcTyye_NYdi-yt-5" style="edgeStyle=orthogonalEdgeStyle;rounded=0;orthogonalLoop=1;jettySize=auto;html=1;exitX=0.5;exitY=0;exitDx=0;exitDy=0;" edge="1" parent="1" source="qoozORwcTyye_NYdi-yt-1">
          <mxGeometry relative="1" as="geometry">
            <mxPoint x="190" y="440" as="targetPoint" />
            <Array as="points">
              <mxPoint x="190" y="460" />
              <mxPoint x="190" y="460" />
            </Array>
          </mxGeometry>
        </mxCell>
        <mxCell id="qoozORwcTyye_NYdi-yt-10" style="edgeStyle=orthogonalEdgeStyle;rounded=0;orthogonalLoop=1;jettySize=auto;html=1;entryX=0;entryY=0.5;entryDx=0;entryDy=0;" edge="1" parent="1" source="qoozORwcTyye_NYdi-yt-6" target="qoozORwcTyye_NYdi-yt-9">
          <mxGeometry relative="1" as="geometry" />
        </mxCell>
        <mxCell id="qoozORwcTyye_NYdi-yt-15" style="edgeStyle=orthogonalEdgeStyle;rounded=0;orthogonalLoop=1;jettySize=auto;html=1;entryX=0.5;entryY=0;entryDx=0;entryDy=0;" edge="1" parent="1" source="qoozORwcTyye_NYdi-yt-6" target="qoozORwcTyye_NYdi-yt-14">
          <mxGeometry relative="1" as="geometry" />
        </mxCell>
        <mxCell id="qoozORwcTyye_NYdi-yt-6" value="" style="rhombus;whiteSpace=wrap;html=1;" vertex="1" parent="1">
          <mxGeometry x="360" y="370" width="80" height="80" as="geometry" />
        </mxCell>
        <mxCell id="qoozORwcTyye_NYdi-yt-8" value="核心线程未满？" style="text;html=1;strokeColor=none;fillColor=none;align=center;verticalAlign=middle;whiteSpace=wrap;rounded=0;" vertex="1" parent="1">
          <mxGeometry x="380" y="400" width="40" height="20" as="geometry" />
        </mxCell>
        <mxCell id="qoozORwcTyye_NYdi-yt-9" value="核心线程Worker" style="rounded=1;whiteSpace=wrap;html=1;" vertex="1" parent="1">
          <mxGeometry x="520" y="380" width="120" height="60" as="geometry" />
        </mxCell>
        <mxCell id="qoozORwcTyye_NYdi-yt-11" value="创建Runable" style="text;html=1;strokeColor=none;fillColor=none;align=center;verticalAlign=middle;whiteSpace=wrap;rounded=0;" vertex="1" parent="1">
          <mxGeometry x="450" y="380" width="40" height="20" as="geometry" />
        </mxCell>
        <mxCell id="qoozORwcTyye_NYdi-yt-13" value="Y" style="text;html=1;strokeColor=none;fillColor=none;align=center;verticalAlign=middle;whiteSpace=wrap;rounded=0;" vertex="1" parent="1">
          <mxGeometry x="450" y="410" width="40" height="20" as="geometry" />
        </mxCell>
        <mxCell id="qoozORwcTyye_NYdi-yt-17" style="edgeStyle=orthogonalEdgeStyle;rounded=0;orthogonalLoop=1;jettySize=auto;html=1;entryX=0;entryY=0.5;entryDx=0;entryDy=0;" edge="1" parent="1" source="qoozORwcTyye_NYdi-yt-14" target="qoozORwcTyye_NYdi-yt-16">
          <mxGeometry relative="1" as="geometry" />
        </mxCell>
        <mxCell id="qoozORwcTyye_NYdi-yt-21" value="" style="edgeStyle=orthogonalEdgeStyle;rounded=0;orthogonalLoop=1;jettySize=auto;html=1;" edge="1" parent="1" source="qoozORwcTyye_NYdi-yt-14" target="qoozORwcTyye_NYdi-yt-20">
          <mxGeometry relative="1" as="geometry" />
        </mxCell>
        <mxCell id="qoozORwcTyye_NYdi-yt-14" value="阻塞线程已满？" style="rhombus;whiteSpace=wrap;html=1;" vertex="1" parent="1">
          <mxGeometry x="360" y="500" width="80" height="80" as="geometry" />
        </mxCell>
        <mxCell id="qoozORwcTyye_NYdi-yt-16" value="非核心线程Worker" style="rounded=1;whiteSpace=wrap;html=1;" vertex="1" parent="1">
          <mxGeometry x="520" y="510" width="120" height="60" as="geometry" />
        </mxCell>
        <mxCell id="qoozORwcTyye_NYdi-yt-18" value="Y" style="text;html=1;align=center;verticalAlign=middle;resizable=0;points=[];autosize=1;" vertex="1" parent="1">
          <mxGeometry x="460" y="550" width="20" height="20" as="geometry" />
        </mxCell>
        <mxCell id="qoozORwcTyye_NYdi-yt-19" value="创建Runable" style="text;html=1;align=center;verticalAlign=middle;resizable=0;points=[];autosize=1;" vertex="1" parent="1">
          <mxGeometry x="430" y="500" width="80" height="20" as="geometry" />
        </mxCell>
        <mxCell id="qoozORwcTyye_NYdi-yt-20" value="Runable" style="rounded=0;whiteSpace=wrap;html=1;" vertex="1" parent="1">
          <mxGeometry x="350" y="680" width="100" height="30" as="geometry" />
        </mxCell>
        <mxCell id="qoozORwcTyye_NYdi-yt-22" value="N" style="text;html=1;align=center;verticalAlign=middle;resizable=0;points=[];autosize=1;" vertex="1" parent="1">
          <mxGeometry x="400" y="610" width="20" height="20" as="geometry" />
        </mxCell>
        <mxCell id="qoozORwcTyye_NYdi-yt-24" value="Blocking Queue(Runable)" style="text;html=1;align=center;verticalAlign=middle;resizable=0;points=[];autosize=1;" vertex="1" parent="1">
          <mxGeometry x="450" y="740" width="150" height="20" as="geometry" />
        </mxCell>
        <mxCell id="qoozORwcTyye_NYdi-yt-25" value="" style="line;strokeWidth=2;direction=south;html=1;fillColor=#d5e8d4;strokeColor=#004C99;gradientColor=#FFFFFF;" vertex="1" parent="1">
          <mxGeometry x="470" y="650" width="10" height="90" as="geometry" />
        </mxCell>
        <mxCell id="qoozORwcTyye_NYdi-yt-26" value="" style="line;strokeWidth=2;direction=south;html=1;fillColor=#d5e8d4;strokeColor=#004C99;gradientColor=#FFFFFF;" vertex="1" parent="1">
          <mxGeometry x="490" y="650" width="10" height="90" as="geometry" />
        </mxCell>
        <mxCell id="qoozORwcTyye_NYdi-yt-27" value="" style="line;strokeWidth=2;direction=south;html=1;" vertex="1" parent="1">
          <mxGeometry x="520" y="650" width="10" height="90" as="geometry" />
        </mxCell>
        <mxCell id="qoozORwcTyye_NYdi-yt-28" value="" style="line;strokeWidth=2;direction=south;html=1;" vertex="1" parent="1">
          <mxGeometry x="540" y="650" width="10" height="90" as="geometry" />
        </mxCell>
        <mxCell id="qoozORwcTyye_NYdi-yt-29" value="" style="line;strokeWidth=2;direction=south;html=1;" vertex="1" parent="1">
          <mxGeometry x="570" y="650" width="10" height="90" as="geometry" />
        </mxCell>
        <mxCell id="qoozORwcTyye_NYdi-yt-30" value="" style="line;strokeWidth=2;direction=south;html=1;" vertex="1" parent="1">
          <mxGeometry x="590" y="650" width="10" height="90" as="geometry" />
        </mxCell>
        <mxCell id="qoozORwcTyye_NYdi-yt-33" style="edgeStyle=orthogonalEdgeStyle;rounded=0;orthogonalLoop=1;jettySize=auto;html=1;entryX=1;entryY=0.5;entryDx=0;entryDy=0;" edge="1" parent="1" source="qoozORwcTyye_NYdi-yt-31" target="qoozORwcTyye_NYdi-yt-16">
          <mxGeometry relative="1" as="geometry" />
        </mxCell>
        <mxCell id="qoozORwcTyye_NYdi-yt-34" style="edgeStyle=orthogonalEdgeStyle;rounded=0;orthogonalLoop=1;jettySize=auto;html=1;entryX=1;entryY=0.5;entryDx=0;entryDy=0;" edge="1" parent="1" source="qoozORwcTyye_NYdi-yt-31" target="qoozORwcTyye_NYdi-yt-9">
          <mxGeometry relative="1" as="geometry" />
        </mxCell>
        <mxCell id="qoozORwcTyye_NYdi-yt-31" value="Runable" style="rounded=0;whiteSpace=wrap;html=1;" vertex="1" parent="1">
          <mxGeometry x="610" y="680" width="110" height="30" as="geometry" />
        </mxCell>
        <mxCell id="qoozORwcTyye_NYdi-yt-35" value="getTask()" style="text;html=1;align=center;verticalAlign=middle;resizable=0;points=[];autosize=1;" vertex="1" parent="1">
          <mxGeometry x="680" y="400" width="60" height="20" as="geometry" />
        </mxCell>
        <mxCell id="qoozORwcTyye_NYdi-yt-36" value="getTask()" style="text;html=1;align=center;verticalAlign=middle;resizable=0;points=[];autosize=1;" vertex="1" parent="1">
          <mxGeometry x="680" y="530" width="60" height="20" as="geometry" />
        </mxCell>
        <mxCell id="qoozORwcTyye_NYdi-yt-37" value="JAVA线程池工作过程" style="rounded=1;whiteSpace=wrap;html=1;strokeColor=#b85450;fillColor=#f8cecc;" vertex="1" parent="1">
          <mxGeometry x="140" y="70" width="570" height="60" as="geometry" />
        </mxCell>
      </root>
    </mxGraphModel>
  </diagram>
</mxfile>
